<svg id="call" xmlns="http://www.w3.org/2000/svg" width="36" height="36" viewBox="0 0 36 36">
  <g id="Group_69" data-name="Group 69">
    <path id="Path_305" data-name="Path 305" d="M30.726,5.27A18,18,0,1,0,36,18,18,18,0,0,0,30.726,5.27Zm-3.466,19.8,0,0V25.07l-.912.906a4.8,4.8,0,0,1-4.53,1.3A15.949,15.949,0,0,1,17.184,25.2,21.4,21.4,0,0,1,13.53,22.25a21.565,21.565,0,0,1-2.73-3.312,16.8,16.8,0,0,1-2.052-4.152,4.8,4.8,0,0,1,1.2-4.9l1.068-1.068a.762.762,0,0,1,1.078,0l0,0,3.372,3.372a.762.762,0,0,1,0,1.078l0,0-1.98,1.98a1.614,1.614,0,0,0-.168,2.1,23.156,23.156,0,0,0,2.37,2.766,23.014,23.014,0,0,0,3.12,2.622,1.626,1.626,0,0,0,2.076-.18L22.8,20.612a.762.762,0,0,1,1.078,0l0,0L27.258,24A.762.762,0,0,1,27.26,25.073Z" transform="translate(0 0)"/>
  </g>
</svg>
